<svg xmlns="http://www.w3.org/2000/svg" width="16" height="14.014" viewBox="0 0 16 14.014">
  <path id="Combined_Shape" data-name="Combined Shape" d="M1.819,13.993a.667.667,0,0,1-.29-1.132l1.813-1.813A13.26,13.26,0,0,1,.1,7.688a.669.669,0,0,1,0-.71C.23,6.774,3.284,2,8,2a7.543,7.543,0,0,1,3.49.9l2.7-2.7a.666.666,0,1,1,.942.942L2.47,13.8a.669.669,0,0,1-.485.21A.686.686,0,0,1,1.819,13.993ZM5.333,7.332a2.591,2.591,0,0,0,.382,1.341L9.341,5.049A2.577,2.577,0,0,0,8,4.667,2.669,2.669,0,0,0,5.333,7.332Zm.51,4.985L13.71,4.451A13.228,13.228,0,0,1,15.9,6.978a.666.666,0,0,1,0,.71c-.128.2-3.183,4.978-7.9,4.978A7.133,7.133,0,0,1,5.844,12.317Z" transform="translate(-0.001)"/>
</svg>
