<svg xmlns="http://www.w3.org/2000/svg" width="16" height="16" viewBox="0 0 16 16">
  <path id="Icons_24px_icon-user" data-name="Icons/24px/icon-user" d="M.616,16A.616.616,0,0,1,0,15.385v-.041a10.63,10.63,0,0,1,.133-2.079,3.425,3.425,0,0,1,1-1.885C2.29,10.305,4.343,9.846,8,9.846s5.7.467,6.865,1.562a3.455,3.455,0,0,1,1,1.886A10.5,10.5,0,0,1,16,15.371v.014a.616.616,0,0,1-.616.616Zm1.36-3.721A2.11,2.11,0,0,0,1.341,13.5a6.62,6.62,0,0,0-.071,1.051c0,.071,0,.143,0,.213H14.732c0-.072,0-.144,0-.216a6.143,6.143,0,0,0-.069-1.017,2.137,2.137,0,0,0-.637-1.232c-.864-.814-2.889-1.227-6.021-1.227S2.831,11.482,1.976,12.28ZM3.692,4.307A4.308,4.308,0,1,1,8,8.616,4.312,4.312,0,0,1,3.692,4.307ZM5.821,2.129A3.091,3.091,0,1,0,8,1.231,3.061,3.061,0,0,0,5.821,2.129Z"/>
</svg>
