<svg xmlns="http://www.w3.org/2000/svg" width="18" height="20.749" viewBox="0 0 18 20.749">
  <g id="Icons_24px_Bookmark" data-name="Icons/24px/Bookmark" transform="translate(-3 -1.75)">
    <path id="Combined_Shape" data-name="Combined Shape" d="M13.137,20.606,7.168,16.343,1.2,20.606a.756.756,0,0,1-.438.142.776.776,0,0,1-.529-.212A.749.749,0,0,1,0,19.988V6.253a2.593,2.593,0,0,1,2.59-2.59h9.157a2.593,2.593,0,0,1,2.59,2.59V19.988a.763.763,0,0,1-.762.76A.753.753,0,0,1,13.137,20.606ZM7.61,14.792l5.21,3.721V6.253a1.074,1.074,0,0,0-1.073-1.072H2.59A1.073,1.073,0,0,0,1.518,6.253v12.26l5.209-3.721a.755.755,0,0,1,.882,0Zm8.872,2.449V2.59A1.072,1.072,0,0,0,15.41,1.518H5.337A.759.759,0,0,1,5.337,0H15.41A2.591,2.591,0,0,1,18,2.59V17.241a.759.759,0,0,1-1.518,0Z" transform="translate(3 1.75)" fill="#1a051d"/>
  </g>
</svg>
