<svg id="Icons_icon-information" data-name="Icons/icon-information" xmlns="http://www.w3.org/2000/svg" width="20" height="20" viewBox="0 0 20 20">
  <path id="icon-information" d="M10,0A10,10,0,1,0,20,10,10.011,10.011,0,0,0,10,0Zm2.215,15.237c-.551.217-2.46,1.128-3.56.159a1.4,1.4,0,0,1-.492-1.1A13.315,13.315,0,0,1,8.929,11a4.748,4.748,0,0,0,.193-1.094c0-.584-.222-.739-.823-.739a2.758,2.758,0,0,0-.912.214l.162-.666a6.366,6.366,0,0,1,2.184-.592c1.057,0,1.836.528,1.836,1.531a4.654,4.654,0,0,1-.155,1.146l-.608,2.152c-.126.435-.353,1.394,0,1.678a1.845,1.845,0,0,0,1.572-.059ZM11.21,6.667a1.25,1.25,0,1,1,1.25-1.25A1.25,1.25,0,0,1,11.21,6.667Z"/>
</svg>
