<svg xmlns="http://www.w3.org/2000/svg" width="28.001" height="27.999" viewBox="0 0 28.001 27.999">
  <g id="Icons_16px_Send" data-name="Icons/16px/Send" transform="translate(-1 -3.001)">
    <path id="icon-send" d="M27.487.512A1.75,1.75,0,0,0,25.662.1l-24.5,8.75a1.748,1.748,0,0,0-.194,3.211l8.026,4.011L19.25,8.749,11.922,19.008l4.011,8.025A1.756,1.756,0,0,0,17.5,28c.037,0,.072,0,.107,0a1.749,1.749,0,0,0,1.543-1.158l8.75-24.5A1.754,1.754,0,0,0,27.487.512Z" transform="translate(1 3.001)" fill="#fff"/>
  </g>
</svg>
