<svg id="info" xmlns="http://www.w3.org/2000/svg" width="22" height="22" viewBox="0 0 22 22">
  <path id="Shape" d="M11,0A11,11,0,1,0,22,11,10.987,10.987,0,0,0,11,0Zm0,20.174A9.174,9.174,0,1,1,20.174,11,9.189,9.189,0,0,1,11,20.174Z" fill="#272833"/>
  <path id="Path" d="M11,9a.953.953,0,0,0-1,.891v7.218a1.01,1.01,0,0,0,2,.045V9.891A.953.953,0,0,0,11,9Z" fill="#272833"/>
  <path id="Path-2" data-name="Path" d="M11,4a1.012,1.012,0,0,0-1,1.017v.966A1.012,1.012,0,0,0,11,7a1.046,1.046,0,0,0,1-1.017V5.017A1.012,1.012,0,0,0,11,4Z" fill="#272833"/>
</svg>
