<svg xmlns="http://www.w3.org/2000/svg" xmlns:xlink="http://www.w3.org/1999/xlink" width="62" height="62" viewBox="0 0 62 62">
  <defs>
    <filter id="Rectangle_Copy" x="0" y="0" width="62" height="62" filterUnits="userSpaceOnUse">
      <feOffset dy="2" input="SourceAlpha"/>
      <feGaussianBlur stdDeviation="2" result="blur"/>
      <feFlood flood-color="#676870" flood-opacity="0.149"/>
      <feComposite operator="in" in2="blur"/>
      <feComposite in="SourceGraphic"/>
    </filter>
  </defs>
  <g id="Various_Store_Logo" data-name="Various/Store Logo" transform="translate(6 4)">
    <g transform="matrix(1, 0, 0, 1, -6, -4)" filter="url(#Rectangle_Copy)">
      <rect id="Rectangle_Copy-2" data-name="Rectangle Copy" width="50" height="50" rx="25" transform="translate(6 4)" fill="#fff"/>
    </g>
    <rect id="Rectangle_Copy_2" data-name="Rectangle Copy 2" width="42" height="42" rx="21" transform="translate(4 4)"/>
    <path id="Combined_Shape" data-name="Combined Shape" d="M10.286,11.428a1.143,1.143,0,1,1,1.142,1.143A1.142,1.142,0,0,1,10.286,11.428Zm-4.572,0a1.143,1.143,0,1,1,1.143,1.143A1.143,1.143,0,0,1,5.714,11.428Zm7.746-1.143H6.718a1.765,1.765,0,0,1-1.675-1.2c-.056-.175-.141-.441-.23-.72l0-.01-.214-.669a.571.571,0,0,1-.056-.175C4.01,5.857,3.428,4.036,2.95,2.54a.54.54,0,0,1-.057-.174c-.076-.239-.2-.634-.262-.823a.582.582,0,0,0-.559-.4H.585A.59.59,0,0,1,.08.86a.556.556,0,0,1,0-.576A.59.59,0,0,1,.585,0H2.073A1.766,1.766,0,0,1,3.748,1.2c.037.117.119.373.163.511H14.245a1.774,1.774,0,0,1,1.415.7,1.692,1.692,0,0,1,.26,1.527c-.3.931-.67,2.1-.913,2.857A1.769,1.769,0,0,1,13.332,8H5.921l.238.742a.582.582,0,0,0,.559.4H13.47a.591.591,0,0,1,.5.283.562.562,0,0,1,0,.577.591.591,0,0,1-.5.283ZM4.745,4.324l.013.037.8,2.5h7.776a.583.583,0,0,0,.559-.4c.226-.71.564-1.767.851-2.66l.014-.043L14.8,3.6a.559.559,0,0,0-.088-.509.587.587,0,0,0-.471-.232H4.276Z" transform="translate(16 19)" fill="#fff"/>
  </g>
</svg>
